Simulation
nRows=27
nColumns=15
endheader
time  TH_x TH_y TH_z SC_y  SC_z  SC_x  AC_y  AC_z  AC_x  GH_y  GH_z  GH_yy  EL_x  PS_y
5.382082397003745  0.000000  0.000000  0.000000  -37.12874792127706  9.264533646601455  3.7548957871776825  51.34771326864465  14.62312701353823  3.959938849050366  12.301814231693122  79.03072518147269  -14.235327844975476  13.454629855453037  120.000000
5.422247191011236  0.000000  0.000000  0.000000  -37.03101261182762  9.196597782321223  4.235815438176233  51.41304295726627  14.397022688983988  3.6516242651406134  12.283681671477723  78.89948534800654  -14.244595309258607  13.476689746080071  120.000000
5.4624119850187265  0.000000  0.000000  0.000000  -36.83061403469215  9.082267925035406  4.541635672408669  51.483684006762125  14.165385715004351  3.3630047940082175  12.311109525068325  78.54248386655209  -14.064198810335311  13.418223348974077  120.000000
5.502576779026217  0.000000  0.000000  0.000000  -36.52684012721694  8.921559585847199  4.6586527240910325  51.56002864238109  13.923529322368418  3.098076561210267  12.382808152381784  77.94187787265928  -13.708243285274088  13.295166269972661  120.000000
5.542741573033708  0.000000  0.000000  0.000000  -36.12105651134616  8.714201450265339  4.5770259586674245  51.64223185254664  13.667957985238042  2.8624395815223926  12.493700011214841  77.0789340949763  -13.196331446736467  13.129733388508102  120.000000
5.582906367041199  0.000000  0.000000  0.000000  -35.617096337571446  8.460011321208729  4.292259598286068  51.72934249909558  13.397124215909642  2.6630124281226  12.635493150969623  75.93632289094727  -12.550815139522646  12.946412729460974  120.000000
5.623071161048689  0.000000  0.000000  0.000000  -35.02169629785545  8.159481220639034  3.806542037142904  51.81847468378875  13.112471931972477  2.5078157991944083  12.79731731924958  74.50062919180213  -11.793865958523996  12.767608570175636  120.000000
5.66323595505618  0.000000  0.000000  0.000000  -34.34454249780843  7.814588507186984  3.1293354966816596  51.904740597322586  12.819183954349702  2.405286735019856  12.9666233470569  72.76442711324977  -10.9445340684873  12.610152084981602  120.000000
5.70340074906367  0.000000  0.000000  0.000000  -33.5976888637592  7.42934284782352  2.2774576192774636  51.98202650869322  12.525707344893757  2.363350639876182  13.130488068864864  70.72740796595647  -10.017019974640471  12.483566774990074  120.000000
5.743565543071161  0.000000  0.000000  0.000000  -32.79446069520259  7.0100813511992515  1.2744365646660925  52.044435854533454  12.242562524039892  2.3883314307267742  13.27698283686028  68.39671164818444  -9.020023858082096  12.390082814341232  120.000000
5.7837303370786515  0.000000  0.000000  0.000000  -31.948300751218813  6.565569486131493  0.14935453890933534  52.08784077013468  11.980816290172708  2.484060026165135  13.396381600008205  65.78656547119465  -7.957216663114564  12.326142217606233  120.000000
5.823895131086142  0.000000  0.000000  0.000000  -31.072107031922698  6.106707577034241  -1.0649941735521185  52.11103381915797  11.750475100672148  2.6514805938867725  13.481951007546987  62.91754883115256  -6.828279991675077  12.284406259444875  120.000000
5.864059925093633  0.000000  0.000000  0.000000  -30.178129308539216  5.645848608010817  -2.3341743698309148  52.11612554774489  11.559124283570858  2.888553895725754  13.530203898163187  59.81558334538459  -5.630158985652896  12.255914548620245  120.000000
5.904224719101124  0.000000  0.000000  0.000000  -29.27852416208892  5.196114909967996  -3.6241334539280152  52.1082200677408  11.41118026047795  3.190850679579209  13.540831894297371  56.511241982228185  -4.358312420174953  12.231948564758536  120.000000
5.944389513108614  0.000000  0.000000  0.000000  -28.385943563945453  4.770893581628818  -4.902867910747065  52.09465419486953  11.30821085742819  3.5519450683206277  13.515986376179235  53.039382274347176  -3.0076453274025345  12.205326624612036  120.000000
5.984554307116105  0.000000  0.000000  0.000000  -27.514165943459986  4.383420887212989  -6.140996290788489  52.08378913071404  11.249046753978586  3.963785742744664  13.459296203984248  49.43856913752299  -1.5730917341994444  12.17129953065032  120.000000
6.024719101123596  0.000000  0.000000  0.000000  -26.67845095567311  4.0458491264937075  -7.312531939581899  52.083589615421204  11.230553317409312  4.4174371462349304  13.374831716217283  45.75017070084282  -0.0499904122985594  12.127899459501764  120.000000
6.064883895131086  0.000000  0.000000  0.000000  -25.894299910252144  3.7686670616684785  -8.394174657413531  52.100830076870864  11.24842118891986  4.902769449764812  13.26610559335504  42.01682615159006  1.5657706577040253  12.076406791995478  120.000000
6.1050486891385765  0.000000  0.000000  0.000000  -25.17583748518186  3.560589191668176  -9.364677490403444  52.141699002445364  11.29834992369768  5.408370082816542  13.136258118051174  38.2809328771695  3.2769791968494206  12.021496051270095  120.000000
6.145213483146067  0.000000  0.000000  0.000000  -24.53489289288068  3.4277361902544086  -10.206003023151434  52.21104040200267  11.377421217483755  5.921911653466051  12.987017864581826  34.58233541656329  5.085312137727868  11.970948269160766  120.000000
6.185378277153558  0.000000  0.000000  0.000000  -23.981013297536492  3.3732324458310647  -10.904104747116614  52.31198390925783  11.483738595537478  6.429931380522004  12.817207630793733  30.95631171657695  6.992524678674611  11.935042110522163  120.000000
6.225543071161049  0.000000  0.000000  0.000000  -23.52080783109885  3.3968093653516336  -11.448406706364814  52.44652025363208  11.616230444338397  6.919694601565487  12.625048606182837  27.43303875077479  8.99875242927948  11.92617604771361  120.000000
6.265707865168539  0.000000  0.000000  0.000000  -23.156832140229703  3.494285604447483  -11.83120567422396  52.616486647407065  11.77491366388464  7.381132759852119  12.410420407221395  24.03788863393464  11.100736094200293  11.957971634442481  120.000000
6.30587265917603  0.000000  0.000000  0.000000  -22.887648108515418  3.658359398356303  -12.048696603972953  52.824089028782545  11.960679074783505  7.806535879491985  12.175704637189943  20.791331685024705  13.2909044327141  12.04386505295434  120.000000
6.346037453183521  0.000000  0.000000  0.000000  -22.70867851259516  3.8789010420651624  -12.101538511311196  53.07099976533713  12.174000709110459  8.190340097430107  11.926261978981993  17.708388223630944  15.556503650341213  12.195773342283545  120.000000
6.386202247191012  0.000000  0.000000  0.000000  -22.612997984293543  4.14311945821618  -11.994771266613164  53.35803802702407  12.413419789852218  8.528517725420238  11.672212310407499  14.798494230367378  17.877305195400393  12.422636792105598  120.000000
6.426367041198501  0.000000  0.000000  0.000000  -22.592085909682673  4.436343521840593  -11.738212007854603  53.6845295666619  12.67486662677217  8.818399493881465  11.430832786145933  12.065546280754553  20.222556637550202  12.72939314410712  120.000000
